# xmcd
#
# Track frame offsets:
#	150
#	16283
#	29072
#	43887
#	73024
#	92083
#	107392
#	121075
#	134900
#	147881
#	164494
#	177985
#	191690
#	202251
#	217611
#	229967
#	243188
#	260612
#	277623
#	294461
#	306273
#	319070
#	332061
#
# Disc length: 4675 seconds
#
# Revision: 1
# Processed by: cddbd v1.5.2PL0 Copyright (c) Steve Scherf et al.
# Submitted via: audiograbber 1.83.01
#
DISCID=5c124117
DTITLE=Ray Charles - All Hits!
DYEAR=2017
DGENRE=Blues
TTITLE0=Georgia on my mind
TTITLE1=I've got a woman
TTITLE2=You don't know me
TTITLE3=What'd I say
TTITLE4=I can't stop loving you
TTITLE5=(Night time is) The right time
TTITLE6=A fool for you
TTITLE7=Baby let me hold your hand
TTITLE8=Let the good times roll
TTITLE9=Come rain or come shine
TTITLE10=At the club
TTITLE11=No letter today
TTITLE12=Swanne River Rock
TTITLE13=Just for a thrill
TTITLE14=It should've been me
TTITLE15=Take these chains from my heart
TTITLE16=Rockhouse (Part 1 and 2)
TTITLE17=Don't let the sun catch you cryin'
TTITLE18=I'm gonna move to the outskirts of town
TTITLE19=Hallelujah I love her so
TTITLE20=Feelin' sad
TTITLE21=Ain't that love
TTITLE22=Baby, it's cold outside
EXTD=
EXTT0=
EXTT1=
EXTT2=
EXTT3=
EXTT4=
EXTT5=
EXTT6=
EXTT7=
EXTT8=
EXTT9=
EXTT10=
EXTT11=
EXTT12=
EXTT13=
EXTT14=
EXTT15=
EXTT16=
EXTT17=
EXTT18=
EXTT19=
EXTT20=
EXTT21=
EXTT22=
PLAYORDER=
